# xmcd CD database file
#
# Track frame offsets:
#	150
#	22558
#	41692
#	64363
#	81720
#	101069
#	123318
#	143390
#	168273
#	191858
#	214100
#	236739
#	251964
#	270386
#	283835
#	306720
#	324580
#	348880
#
# Disc length: 4779 seconds
#
# Revision: 0
# Processed by: cddbd v1.5.2PL0 Copyright (c) Steve Scherf et al.
# Submitted via: CDex 1.51
#
DISCID=1412a912
DTITLE=Sampler - Johan Derksen Presents Blues Village CD 2
DYEAR=2016
DGENRE=Blues
TTITLE0=Etta James - Misty Blues
TTITLE1=Otis Redding - A Change Is Gonna Come
TTITLE2=Van Morrison and Tom Jones - Sometimes We Cry
TTITLE3=Gina Sicilia - Bad Years Comin' On
TTITLE4=Jonny Lang - Only A Man
TTITLE5=Delbert McClinton - Take It Easy
TTITLE6=Tedeschi Trucks Band - Let Me Get By
TTITLE7=Robben Ford - Nothing To Nobody
TTITLE8=Lucky Peterson - When My Blood Runs Cold
TTITLE9=Johnny Copeland - I Got A Love
TTITLE10=Sal Valentino - Come Out Tonight
TTITLE11=Walter Trout - Gonna Live Again
TTITLE12=Tinsley Ellis - Should I Have Lied
TTITLE13=Danielle Nicole - Take It All
TTITLE14=Little Milton - Walking The Backstreets And Crying
TTITLE15=Mavis Stapels - Stand By Me
TTITLE16=Eddie Hinton - I Got The Feeling
TTITLE17=The Johnny Otis Show - Telephone Baby
EXTD=YEAR: 2016
EXTT0=
EXTT1=
EXTT2=
EXTT3=
EXTT4=
EXTT5=
EXTT6=
EXTT7=
EXTT8=
EXTT9=
EXTT10=
EXTT11=
EXTT12=
EXTT13=
EXTT14=
EXTT15=
EXTT16=
EXTT17=
PLAYORDER=
